<svg xmlns="http://www.w3.org/2000/svg" width="805" height="600"><rect width="805" height="600" x="0" y="0" fill="#FFFFFF" id="backgorund"/><g id="viz"><clipPath id="serieClipPath"><rect x="-50" y="-10" width="805" height="600"/></clipPath><g transform="translate(0,0)"><g transform="translate(50,10)" clip-path="url(#serieClipPath)"><g id="axis"><g transform="translate(0,570)" fill="none" font-size="10" font-family="sans-serif" text-anchor="middle"><path class="domain" stroke="currentColor" d="M0.5,6V0.5H740.5V6"/><g class="tick" opacity="1" transform="translate(0.5,0)"><line stroke="currentColor" y2="6"/><text fill="currentColor" y="9" dy="0.71em">0100</text></g><g class="tick" opacity="1" transform="translate(82.67219348950411,0)"><line stroke="currentColor" y2="6"/><text fill="currentColor" y="9" dy="0.71em">0101</text></g><g class="tick" opacity="1" transform="translate(164.84438697900822,0)"><line stroke="currentColor" y2="6"/><text fill="currentColor" y="9" dy="0.71em">0102</text></g><g class="tick" opacity="1" transform="translate(247.0165804685123,0)"><line stroke="currentColor" y2="6"/><text fill="currentColor" y="9" dy="0.71em">0103</text></g><g class="tick" opacity="1" transform="translate(329.18877395801644,0)"><line stroke="currentColor" y2="6"/><text fill="currentColor" y="9" dy="0.71em">0104</text></g><g class="tick" opacity="1" transform="translate(411.586096744752,0)"><line stroke="currentColor" y2="6"/><text fill="currentColor" y="9" dy="0.71em">0105</text></g><g class="tick" opacity="1" transform="translate(493.75829023425615,0)"><line stroke="currentColor" y2="6"/><text fill="currentColor" y="9" dy="0.71em">0106</text></g><g class="tick" opacity="1" transform="translate(575.9304837237602,0)"><line stroke="currentColor" y2="6"/><text fill="currentColor" y="9" dy="0.71em">0107</text></g><g class="tick" opacity="1" transform="translate(658.1026772132644,0)"><line stroke="currentColor" y2="6"/><text fill="currentColor" y="9" dy="0.71em">0108</text></g><g class="tick" opacity="1" transform="translate(740.5,0)"><line stroke="currentColor" y2="6"/><text fill="currentColor" y="9" dy="0.71em">0109</text></g><text x="740" dy="-5" text-anchor="end" style="font-family: Arial, sans-serif; font-size: 12px; fill: rgb(123, 123, 123); font-weight: bold;">(Year)</text></g><g transform="translate(0,0)" fill="none" font-size="10" font-family="sans-serif" text-anchor="end"><path class="domain" stroke="currentColor" d="M0.5,570.5V0.5"/><g class="tick" opacity="1" transform="translate(0,570.5)"><line stroke="currentColor" x2="-6"/><text fill="currentColor" x="-9" dy="0.32em">1,000,000</text></g><g class="tick" opacity="1" transform="translate(0,518.6818181818181)"><line stroke="currentColor" x2="-6"/><text fill="currentColor" x="-9" dy="0.32em">2,000,000</text></g><g class="tick" opacity="1" transform="translate(0,466.8636363636363)"><line stroke="currentColor" x2="-6"/><text fill="currentColor" x="-9" dy="0.32em">3,000,000</text></g><g class="tick" opacity="1" transform="translate(0,415.04545454545456)"><line stroke="currentColor" x2="-6"/><text fill="currentColor" x="-9" dy="0.32em">4,000,000</text></g><g class="tick" opacity="1" transform="translate(0,363.22727272727275)"><line stroke="currentColor" x2="-6"/><text fill="currentColor" x="-9" dy="0.32em">5,000,000</text></g><g class="tick" opacity="1" transform="translate(0,311.4090909090909)"><line stroke="currentColor" x2="-6"/><text fill="currentColor" x="-9" dy="0.32em">6,000,000</text></g><g class="tick" opacity="1" transform="translate(0,259.5909090909091)"><line stroke="currentColor" x2="-6"/><text fill="currentColor" x="-9" dy="0.32em">7,000,000</text></g><g class="tick" opacity="1" transform="translate(0,207.77272727272728)"><line stroke="currentColor" x2="-6"/><text fill="currentColor" x="-9" dy="0.32em">8,000,000</text></g><g class="tick" opacity="1" transform="translate(0,155.95454545454544)"><line stroke="currentColor" x2="-6"/><text fill="currentColor" x="-9" dy="0.32em">9,000,000</text></g><g class="tick" opacity="1" transform="translate(0,104.13636363636361)"><line stroke="currentColor" x2="-6"/><text fill="currentColor" x="-9" dy="0.32em">10,000,000</text></g><g class="tick" opacity="1" transform="translate(0,52.318181818181834)"><line stroke="currentColor" x2="-6"/><text fill="currentColor" x="-9" dy="0.32em">11,000,000</text></g><g class="tick" opacity="1" transform="translate(0,0.5)"><line stroke="currentColor" x2="-6"/><text fill="currentColor" x="-9" dy="0.32em">12,000,000</text></g><text x="4" text-anchor="start" dominant-baseline="hanging" style="font-family: Arial, sans-serif; font-size: 12px; fill: rgb(123, 123, 123); font-weight: bold;">(Total)</text></g></g><g id="viz"><g><path d="M0,306.3758290909091L82.17219348950411,242.9511L164.34438697900822,206.42912727272727L246.5165804685123,108.2894290909091L328.68877395801644,80.84750454545454L411.086096744752,67.86736090909093L493.25829023425615,65.31158454545456L575.4304837237602,48.361546363636386L657.6026772132644,7.041831818181812L740,550.41993" stroke="#1f77b4" fill="none"/><text font-family="sans-serif" font-size="10" class="labels" x="657.6026772132644" y="7.041831818181812" dx="0" dy="-4" text-anchor="middle"/></g></g></g><text y="4" x="4" style="font-family: Arial, sans-serif; font-size: 12px; fill: black; font-weight: bold; dominant-baseline: hanging;"/></g><g id="grid"><rect x="0" y="0" width="805" height="600" fill="none" stroke="#ccc"/></g></g></svg>